<?xml version="1.0" standalone="no"?>
<svg xmlns:xlink="http://www.w3.org/1999/xlink" id="wave" style="transform:rotate(180deg); transition: 0.3s" viewBox="0 0 1440 100" version="1.1" xmlns="http://www.w3.org/2000/svg"><defs><linearGradient id="sw-gradient-0" x1="0" x2="0" y1="1" y2="0"><stop stop-color="rgba(255, 249, 234, 1)" offset="0%"/><stop stop-color="rgba(255, 249, 234, 1)" offset="100%"/></linearGradient></defs><path style="transform:translate(0, 0px); opacity:1" fill="url(#sw-gradient-0)" d="M0,30L40,40C80,50,160,70,240,76.7C320,83,400,77,480,63.3C560,50,640,30,720,26.7C800,23,880,37,960,36.7C1040,37,1120,23,1200,23.3C1280,23,1360,37,1440,41.7C1520,47,1600,43,1680,36.7C1760,30,1840,20,1920,15C2000,10,2080,10,2160,23.3C2240,37,2320,63,2400,75C2480,87,2560,83,2640,80C2720,77,2800,73,2880,66.7C2960,60,3040,50,3120,50C3200,50,3280,60,3360,63.3C3440,67,3520,63,3600,51.7C3680,40,3760,20,3840,10C3920,0,4000,0,4080,3.3C4160,7,4240,13,4320,25C4400,37,4480,53,4560,50C4640,47,4720,23,4800,21.7C4880,20,4960,40,5040,45C5120,50,5200,40,5280,38.3C5360,37,5440,43,5520,43.3C5600,43,5680,37,5720,33.3L5760,30L5760,100L5720,100C5680,100,5600,100,5520,100C5440,100,5360,100,5280,100C5200,100,5120,100,5040,100C4960,100,4880,100,4800,100C4720,100,4640,100,4560,100C4480,100,4400,100,4320,100C4240,100,4160,100,4080,100C4000,100,3920,100,3840,100C3760,100,3680,100,3600,100C3520,100,3440,100,3360,100C3280,100,3200,100,3120,100C3040,100,2960,100,2880,100C2800,100,2720,100,2640,100C2560,100,2480,100,2400,100C2320,100,2240,100,2160,100C2080,100,2000,100,1920,100C1840,100,1760,100,1680,100C1600,100,1520,100,1440,100C1360,100,1280,100,1200,100C1120,100,1040,100,960,100C880,100,800,100,720,100C640,100,560,100,480,100C400,100,320,100,240,100C160,100,80,100,40,100L0,100Z"/></svg>